#!OML:ASF F:\VICON\USERDATA\INSTALL\rory3\rory3.ASF
:FULLY-SPECIFIED
:DEGREES
353
root -0.828827 17.574 36.2413 -2.00157 2.49141 -1.23011
lowerback 5.76227 -1.92097 -1.11514
upperback 1.17558 -2.54435 3.76757
thorax -1.7957 -1.26369 4.70337
lowerneck -13.2961 -1.74882 -9.55211
upperneck 24.7637 -1.17816 3.93643
head 10.1802 -0.985777 2.86404
rclavicle -1.47598e-014 1.74931e-014
rhumerus -38.6288 -22.1893 -68.8047
rradius 20.8162
rwrist 16.7036
rhand -13.3911 17.5654
rfingers 7.12502
rthumb 12.7162 -12.0274
lclavicle -1.47598e-014 1.74931e-014
lhumerus -29.4769 2.97494 83.7981
lradius 35.3368
lwrist -8.85557
lhand -17.5106 23.7086
lfingers 7.12502
lthumb 8.74262 53.5075
rfemur -20.322 1.75384 25.4731
rtibia 34.7086
rfoot -10.063 -7.88727
rtoes 4.95253
lfemur -0.959262 -3.45028 -17.9879
ltibia 54.6721
lfoot 31.541 -10.3183
ltoes -2.69218
354
root -0.833504 17.5899 36.4248 -1.9254 2.35367 -0.883827
lowerback 5.85715 -1.88587 -1.33995
upperback 1.01913 -2.51078 3.59396
thorax -2.01126 -1.23999 4.6558
lowerneck -13.1131 -1.77532 -9.61615
upperneck 24.877 -1.28544 4.17845
head 10.1943 -1.01779 2.95014
rclavicle -1.34677e-014 1.98785e-014
rhumerus -38.1488 -21.7531 -69.19
rradius 20.7775
rwrist 16.9153
rhand -13.4046 17.652
rfingers 7.12502
rthumb 12.7031 -11.9416
lclavicle -1.34677e-014 1.98785e-014
lhumerus -29.8858 3.33413 83.8504
lradius 34.8714
lwrist -9.31413
lhand -17.408 23.9784
lfingers 7.12502
lthumb 8.84166 53.7732
rfemur -19.5949 1.66961 25.1769
rtibia 34.5819
rfoot -10.5134 -7.75415
rtoes 4.25824
lfemur -2.47913 -3.18744 -18.3489
ltibia 56.23
lfoot 29.3194 -11.2467
ltoes -3.17732
355
root -0.84034 17.6164 36.6089 -1.89157 2.09941 -0.594158
lowerback 5.58509 -1.77733 -1.56118
upperback 1.20366 -2.38737 3.45967
thorax -1.67663 -1.18592 4.61588
lowerneck -13.2683 -1.84595 -9.6459
upperneck 24.8717 -1.38816 4.28142
head 10.2309 -1.05464 2.97933
rclavicle -8.15017e-015 7.95139e-016
rhumerus -37.1962 -21.4818 -69.728
rradius 20.8077
rwrist 16.9838
rhand -13.4865 17.4469
rfingers 7.12502
rthumb 12.6242 -12.1516
lclavicle -8.15017e-015 7.95139e-016
lhumerus -29.4154 3.63888 84.0179
lradius 33.9236
lwrist -9.77465
lhand -17.3733 24.2685
lfingers 7.12502
lthumb 8.87516 54.0619
rfemur -18.9708 1.70509 24.9486
rtibia 34.4845
rfoot -10.8934 -7.66457
rtoes 3.69037
lfemur -3.85252 -2.77715 -18.6301
ltibia 57.5253
lfoot 26.6716 -11.7639
ltoes -3.80952
356
root -0.849812 17.6427 36.8006 -1.94685 1.88809 -0.4193
lowerback 5.38681 -1.64848 -1.65189
upperback 1.36358 -2.22637 3.33446
thorax -1.41726 -1.11194 4.51469
lowerneck -13.5372 -1.89748 -9.58861
upperneck 24.9636 -1.4438 4.27126
head 10.3202 -1.07557 2.96097
rclavicle 4.20927e-014 -7.95139e-015
rhumerus -36.5439 -21.2116 -70.1657
rradius 21.0566
rwrist 17.0109
rhand -13.4604 17.13
rfingers 7.12502
rthumb 12.6494 -12.467
lclavicle 4.20927e-014 -7.95139e-015
lhumerus -29.6231 3.9074 84.1947
lradius 33.6547
lwrist -10.3598
lhand -16.4607 24.8645
lfingers 7.12502
lthumb 9.7557 54.6186
rfemur -18.2104 1.6501 24.8596
rtibia 34.336
rfoot -11.3044 -7.58146
rtoes 3.01509
lfemur -5.05378 -2.40348 -18.7646
ltibia 58.6416
lfoot 23.7664 -11.6855
ltoes -3.52383
357
root -0.861362 17.6585 36.9861 -2.10569 1.64696 -0.632499
lowerback 5.61529 -1.51177 -1.33668
upperback 1.24212 -2.02324 3.32242
thorax -1.69995 -1.00441 4.3223
lowerneck -13.2356 -1.94427 -9.83549
upperneck 25.1098 -1.54695 4.51176
head 10.327 -1.12433 3.07907
rclavicle 3.13086e-015 3.10104e-014
rhumerus -36.329 -21.0363 -70.2517
rradius 21.2519
rwrist 17.324
rhand -13.1859 16.9058
rfingers 7.12502
rthumb 12.914 -12.6746
lclavicle 3.13086e-015 3.10104e-014
lhumerus -30.5509 4.23916 84.364
lradius 33.6199
lwrist -10.938
lhand -15.9898 25.1087
lfingers 7.12502
lthumb 10.21 54.841
rfemur -17.2218 1.66805 25.2089
rtibia 34.1277
rfoot -11.7764 -7.5351
rtoes 2.51806
lfemur -6.16519 -2.0525 -18.4452
ltibia 59.6508
lfoot 20.6363 -11.5543
ltoes -3.96298
358
root -0.867751 17.6743 37.1669 -2.12886 1.31057 -0.945495
lowerback 5.72606 -1.38579 -0.868199
upperback 1.13256 -1.82472 3.2922
thorax -1.90744 -0.90248 4.01851
lowerneck -12.9625 -1.96892 -9.85988
upperneck 25.4097 -1.61249 4.52151
head 10.3894 -1.16485 3.08428
rclavicle -7.20594e-015 -7.95139e-016
rhumerus -35.7392 -20.8949 -70.5307
rradius 21.123
rwrist 17.5576
rhand -13.111 16.987
rfingers 7.12502
rthumb 12.9861 -12.5889
lclavicle -7.20594e-015 -7.95139e-016
lhumerus -31.1536 4.5523 84.4126
lradius 33.2585
lwrist -11.2085
lhand -15.7178 25.0349
lfingers 7.12502
lthumb 10.4724 54.754
rfemur -16.3569 1.80785 25.6459
rtibia 33.8534
rfoot -12.292 -7.46739
rtoes 2.59461
lfemur -7.41293 -1.56553 -18.0094
ltibia 60.5715
lfoot 17.3408 -11.5712
ltoes -6.61013
359
root -0.877428 17.6881 37.3434 -2.15952 1.00928 -0.833104
lowerback 5.72005 -1.26961 -0.971945
upperback 1.23138 -1.68005 3.21216
thorax -1.81255 -0.832201 3.9817
lowerneck -13.1251 -1.98105 -9.86314
upperneck 25.6518 -1.62119 4.54815
head 10.5109 -1.16994 3.09849
rclavicle 1.50082e-014 -1.74931e-014
rhumerus -34.8817 -20.4706 -71.1101
rradius 21.2376
rwrist 17.2732
rhand -13.4554 17.3277
rfingers 7.12502
rthumb 12.6542 -12.2689
lclavicle 1.50082e-014 -1.74931e-014
lhumerus -31.4215 4.77536 84.6023
lradius 32.8801
lwrist -11.1882
lhand -16.2545 24.6379
lfingers 7.12502
lthumb 9.9546 54.3826
rfemur -15.5166 2.09345 25.609
rtibia 33.551
rfoot -12.7783 -7.52983
rtoes 3.15251
lfemur -8.65743 -1.11919 -18.0739
ltibia 61.3638
lfoot 14.435 -11.6201
ltoes -9.58696
360
root -0.885838 17.6958 37.517 -2.18205 0.771295 -0.947939
lowerback 5.69931 -1.14915 -0.772444
upperback 1.25238 -1.50913 3.16538
thorax -1.79886 -0.747935 3.80736
lowerneck -13.0109 -2.00928 -9.74695
upperneck 25.593 -1.68508 4.4888
head 10.4704 -1.19451 3.04777
rclavicle -1.53064e-014 -2.3059e-014
rhumerus -34.3058 -19.7277 -71.6815
rradius 21.6131
rwrist 16.459
rhand -13.5622 17.7708
rfingers 7.12502
rthumb 12.5512 -11.8322
lclavicle -1.53064e-014 -2.3059e-014
lhumerus -31.7014 4.92454 84.7826
lradius 32.4973
lwrist -11.328
lhand -16.4796 24.46
lfingers 7.12502
lthumb 9.73747 54.2148
rfemur -14.7103 2.22792 25.8454
rtibia 33.2354
rfoot -13.1657 -7.62151
rtoes 3.17362
lfemur -9.95696 -0.675287 -17.8659
ltibia 62.0667
lfoot 11.9794 -11.7121
ltoes -10.9556
361
root -0.892819 17.6998 37.6908 -2.09836 0.451765 -1.33114
lowerback 5.6652 -1.03937 -0.31309
upperback 1.1765 -1.33315 3.20941
thorax -1.88021 -0.66019 3.58158
lowerneck -12.9873 -2.00818 -9.72938
upperneck 25.6748 -1.70608 4.54322
head 10.4972 -1.1981 3.06352
rclavicle 1.2921e-015 -1.35174e-014
rhumerus -33.7862 -18.9025 -72.232
rradius 21.9962
rwrist 15.723
rhand -13.5764 17.9337
rfingers 7.12502
rthumb 12.5375 -11.6702
lclavicle 1.2921e-015 -1.35174e-014
lhumerus -31.9592 5.25605 84.8976
lradius 32.0156
lwrist -11.7247
lhand -15.7717 24.7792
lfingers 7.12502
lthumb 10.4204 54.5009
rfemur -13.9581 2.53501 26.3739
rtibia 32.9107
rfoot -13.4746 -7.76178
rtoes 4.2217
lfemur -11.3439 -0.237307 -17.3598
ltibia 62.655
lfoot 9.87516 -11.5966
ltoes -12.8305
362
root -0.901665 17.6958 37.8557 -2.03513 0.102902 -1.77352
lowerback 5.79551 -0.944499 0.126421
upperback 1.03561 -1.17207 3.29215
thorax -2.11576 -0.578594 3.41325
lowerneck -12.6526 -2.01522 -9.96464
upperneck 25.655 -1.78293 4.86695
head 10.4346 -1.22168 3.21072
rclavicle -1.69961e-014 2.78299e-014
rhumerus -33.3909 -17.8794 -72.8554
rradius 22.6172
rwrist 14.8019
rhand -13.4376 17.4369
rfingers 7.12502
rthumb 12.6714 -12.1587
lclavicle -1.69961e-014 2.78299e-014
lhumerus -32.4289 5.36401 85.0866
lradius 31.5224
lwrist -11.4503
lhand -15.9294 24.7167
lfingers 7.12502
lthumb 10.2683 54.4461
rfemur -13.1606 2.81537 26.9751
rtibia 32.5778
rfoot -14.021 -7.85664
rtoes 4.19731
lfemur -12.7513 0.183492 -16.7837
ltibia 63.1302
lfoot 8.05528 -11.221
ltoes -15.2531
363
root -0.91013 17.6939 38.017 -1.94336 -0.395951 -2.4329
lowerback 5.89506 -0.768597 0.869885
upperback 1.00482 -0.886018 3.36608
thorax -2.23 -0.439614 3.05155
lowerneck -12.7643 -2.13603 -9.95346
upperneck 25.8163 -1.96211 4.91964
head 10.5316 -1.29912 3.2086
rclavicle 1.05853e-014 -9.54166e-015
rhumerus -32.8124 -17.1136 -73.5106
rradius 23.2336
rwrist 13.8906
rhand -13.4554 16.9384
rfingers 7.12502
rthumb 12.6542 -12.6582
lclavicle 1.05853e-014 -9.54166e-015
lhumerus -32.7083 5.24548 85.3243
lradius 30.984
lwrist -11.0261
lhand -16.7043 24.6754
lfingers 7.12502
lthumb 9.52063 54.4403
rfemur -12.5193 3.39126 27.8115
rtibia 32.2756
rfoot -14.3856 -7.9631
rtoes 4.2293
lfemur -14.1759 0.707989 -15.9467
ltibia 63.4526
lfoot 6.70422 -10.6203
ltoes -14.5851
364
root -0.913821 17.7025 38.1862 -1.79791 -0.755862 -2.42077
lowerback 5.77867 -0.56081 0.977249
upperback 1.11851 -0.611695 3.28821
thorax -2.06245 -0.304781 2.88602
lowerneck -13.1935 -2.2094 -9.67796
upperneck 25.8545 -1.99288 4.57527
head 10.6276 -1.32244 3.03287
rclavicle 1.90833e-014 -5.88403e-014
rhumerus -31.9171 -16.4755 -74.0779
rradius 23.6016
rwrist 12.7618
rhand -13.6741 17.4085
rfingers 7.12502
rthumb 12.4434 -12.2011
lclavicle 1.90833e-014 -5.88403e-014
lhumerus -32.6712 5.31029 85.6248
lradius 30.4394
lwrist -11.2352
lhand -17.1113 24.48
lfingers 7.12502
lthumb 9.1279 54.2625
rfemur -11.9731 3.72967 27.8099
rtibia 31.9934
rfoot -14.7662 -7.74803
rtoes 5.388
lfemur -15.6007 0.997814 -15.9404
ltibia 63.5182
lfoot 5.53688 -9.67584
ltoes -11.5929
365
root -0.914294 17.7161 38.3541 -1.61234 -0.914592 -2.13662
lowerback 5.55065 -0.444918 0.842079
upperback 1.19706 -0.47778 3.14066
thorax -1.86003 -0.238532 2.79559
lowerneck -13.3167 -2.20282 -9.73882
upperneck 25.7514 -1.98713 4.70369
head 10.6144 -1.30696 3.08873
rclavicle -5.96354e-016 7.15625e-015
rhumerus -31.0963 -15.7689 -74.6178
rradius 24.003
rwrist 11.7745
rhand -14.0264 17.9155
rfingers 7.12502
rthumb 12.1036 -11.7144
lclavicle -5.96354e-016 7.15625e-015
lhumerus -32.7512 5.3712 85.887
lradius 29.9632
lwrist -11.4942
lhand -17.0221 24.4279
lfingers 7.12502
lthumb 9.21405 54.2065
rfemur -11.4387 3.78067 27.4735
rtibia 31.7633
rfoot -15.2476 -7.4245
rtoes 7.17241
lfemur -17.1942 0.908387 -16.2747
ltibia 63.3786
lfoot 4.64918 -8.55295
ltoes -7.44397
